<svg xmlns="http://www.w3.org/2000/svg" viewBox="0 0 500 500" width="500" height="500" preserveAspectRatio="xMidYMid meet" style="width: 100%; height: 100%; transform: translate3d(0px, 0px, 0px); content-visibility: visible;"><defs><clipPath id="__lottie_element_1041"><rect width="500" height="500" x="0" y="0"></rect></clipPath><clipPath id="__lottie_element_1049"><path d="M0,0 L500,0 L500,500 L0,500z"></path></clipPath><filter id="__lottie_element_1062" filterUnits="objectBoundingBox" x="0%" y="0%" width="100%" height="100%"><feComponentTransfer in="SourceGraphic"><feFuncA type="table" tableValues="1.0 0.0"></feFuncA></feComponentTransfer></filter><mask id="__lottie_element_1061" mask-type="alpha"><g filter="url(#__lottie_element_1062)"><rect width="500" height="500" x="0" y="0" fill="#ffffff" opacity="0"></rect><g style="display: none;"><g><path stroke-linecap="round" stroke-linejoin="round" fill-opacity="0"></path><path></path></g></g></g></mask><clipPath id="__lottie_element_1066"><path d="M0,0 L500,0 L500,500 L0,500z"></path></clipPath><clipPath id="__lottie_element_1070"><path d="M0,0 L500,0 L500,500 L0,500z"></path></clipPath><filter id="__lottie_element_1083" filterUnits="objectBoundingBox" x="0%" y="0%" width="100%" height="100%"><feComponentTransfer in="SourceGraphic"><feFuncA type="table" tableValues="1.0 0.0"></feFuncA></feComponentTransfer></filter><mask id="__lottie_element_1082" mask-type="alpha"><g filter="url(#__lottie_element_1083)"><rect width="500" height="500" x="0" y="0" fill="#ffffff" opacity="0"></rect><g transform="matrix(1,0,0,1,330.05999755859375,250.86099243164062)" opacity="1" style="display: block;"><g opacity="1" transform="matrix(1,0,0,1,0,0)"><path stroke-linecap="round" stroke-linejoin="round" fill-opacity="0" stroke="rgb(18,19,48)" stroke-opacity="1" stroke-width="0" d=" M80.05999755859375,132.5709991455078 C39.441001892089844,132.5709991455078 -38.560001373291016,132.5709991455078 -80.05999755859375,132.5709991455078 C-80.05999755859375,49.63800048828125 -80.05999755859375,-51.861000061035156 -80.05999755859375,-132.5709991455078 C-38.060001373291016,-132.5709991455078 41.441001892089844,-132.5709991455078 80.05999755859375,-132.5709991455078 C80.05999755859375,-44.361000061035156 80.05999755859375,54.63800048828125 80.05999755859375,132.5709991455078z"></path><path fill="rgb(255,0,0)" fill-opacity="1" d=" M80.05999755859375,132.5709991455078 C39.441001892089844,132.5709991455078 -38.560001373291016,132.5709991455078 -80.05999755859375,132.5709991455078 C-80.05999755859375,49.63800048828125 -80.05999755859375,-51.861000061035156 -80.05999755859375,-132.5709991455078 C-38.060001373291016,-132.5709991455078 41.441001892089844,-132.5709991455078 80.05999755859375,-132.5709991455078 C80.05999755859375,-44.361000061035156 80.05999755859375,54.63800048828125 80.05999755859375,132.5709991455078z"></path></g></g></g></mask><clipPath id="__lottie_element_1087"><path d="M0,0 L500,0 L500,500 L0,500z"></path></clipPath></defs><g clip-path="url(#__lottie_element_1041)"><g mask="url(#__lottie_element_1061)" style="display: block;"><g clip-path="url(#__lottie_element_1066)" transform="matrix(1,0,0,1,0,0)" opacity="1"><g mask="url(#__lottie_element_1082)" style="display: block;"><g clip-path="url(#__lottie_element_1087)" transform="matrix(1,0,0,1,0,0)" opacity="1"><g transform="matrix(1,0,0,1,169.94000244140625,250.86099243164062)" opacity="1" style="display: block;"><g opacity="1" transform="matrix(1,0,0,1,0,0)"><path stroke-linecap="round" stroke-linejoin="round" fill-opacity="0" stroke="rgb(18,19,48)" stroke-opacity="1" stroke-width="12.04" d=" M80.05999755859375,132.5709991455078 C80.05999755859375,132.5709991455078 -80.05999755859375,132.5709991455078 -80.05999755859375,132.5709991455078 C-80.05999755859375,132.5709991455078 -80.05999755859375,-132.5709991455078 -80.05999755859375,-132.5709991455078 C-80.05999755859375,-132.5709991455078 80.05999755859375,-132.5709991455078 80.05999755859375,-132.5709991455078 C80.05999755859375,-132.5709991455078 80.05999755859375,132.5709991455078 80.05999755859375,132.5709991455078z"></path></g></g><g transform="matrix(1,0,0,1,330.05999755859375,250.86099243164062)" opacity="1" style="display: block;"><g opacity="1" transform="matrix(1,0,0,1,0,0)"><path stroke-linecap="round" stroke-linejoin="round" fill-opacity="0" stroke="rgb(18,19,48)" stroke-opacity="1" stroke-width="12.04" d=" M80.05999755859375,132.5709991455078 C39.441001892089844,132.5709991455078 -38.560001373291016,132.5709991455078 -80.05999755859375,132.5709991455078 C-80.05999755859375,49.63800048828125 -80.05999755859375,-51.861000061035156 -80.05999755859375,-132.5709991455078 C-38.060001373291016,-132.5709991455078 41.441001892089844,-132.5709991455078 80.05999755859375,-132.5709991455078 C80.05999755859375,-44.361000061035156 80.05999755859375,54.63800048828125 80.05999755859375,132.5709991455078z"></path></g></g><g transform="matrix(1,0,0,1,0,0)" opacity="1" style="display: block;"><g opacity="1" transform="matrix(1,0,0,1,182.47000122070312,164.552001953125)"><path stroke-linecap="round" stroke-linejoin="round" fill-opacity="0" stroke="rgb(18,19,48)" stroke-opacity="1" stroke-width="12.04" d=" M-29.280000686645508,0 C-29.280000686645508,0 29.280000686645508,0 29.280000686645508,0"></path></g><g opacity="1" transform="matrix(1,0,0,1,127.86900329589844,164.552001953125)"><path stroke-linecap="round" stroke-linejoin="round" fill-opacity="0" stroke="rgb(18,19,48)" stroke-opacity="1" stroke-width="12.04" d=" M-0.2619999945163727,0 C-0.2619999945163727,0 0.2619999945163727,0 0.2619999945163727,0"></path></g><g opacity="1" transform="matrix(1,0,0,1,0,0)"><g opacity="1" transform="matrix(1,0,0,1,182.47000122070312,197.11000061035156)"><path stroke-linecap="round" stroke-linejoin="round" fill-opacity="0" stroke="rgb(18,19,48)" stroke-opacity="1" stroke-width="12.04" d=" M-29.280000686645508,0 C-29.280000686645508,0 29.280000686645508,0 29.280000686645508,0"></path></g><g opacity="1" transform="matrix(1,0,0,1,127.86900329589844,197.11000061035156)"><path stroke-linecap="round" stroke-linejoin="round" fill-opacity="0" stroke="rgb(18,19,48)" stroke-opacity="1" stroke-width="12.04" d=" M-0.2619999945163727,0 C-0.2619999945163727,0 0.2619999945163727,0 0.2619999945163727,0"></path></g><g opacity="1" transform="matrix(1,0,0,1,182.47000122070312,229.66799926757812)"><path stroke-linecap="round" stroke-linejoin="round" fill-opacity="0" stroke="rgb(18,19,48)" stroke-opacity="1" stroke-width="12.04" d=" M-29.280000686645508,0 C-29.280000686645508,0 29.280000686645508,0 29.280000686645508,0"></path></g><g opacity="1" transform="matrix(1,0,0,1,127.86900329589844,229.66799926757812)"><path stroke-linecap="round" stroke-linejoin="round" fill-opacity="0" stroke="rgb(18,19,48)" stroke-opacity="1" stroke-width="12.04" d=" M-0.2619999945163727,0 C-0.2619999945163727,0 0.2619999945163727,0 0.2619999945163727,0"></path></g></g><g opacity="1" transform="matrix(1,0,0,1,169.9409942626953,310.8089904785156)"><path stroke-linecap="round" stroke-linejoin="round" fill-opacity="0" stroke="rgb(7,168,137)" stroke-opacity="1" stroke-width="12.04" d=" M-35.23899841308594,8.795000076293945 C-35.23899841308594,8.795000076293945 -17.610000610351562,26.423999786376953 -17.610000610351562,26.423999786376953 C-17.610000610351562,26.423999786376953 35.23899841308594,-26.423999786376953 35.23899841308594,-26.423999786376953"></path></g><g opacity="1" transform="matrix(1,0,0,1,0,0)"><g opacity="1" transform="matrix(1,0,0,1,330.59100341796875,189.4669952392578)"><path stroke-linecap="round" stroke-linejoin="round" fill-opacity="0" stroke="rgb(7,168,137)" stroke-opacity="1" stroke-width="12.04" d=" M24.915000915527344,24.915000915527344 C24.915000915527344,24.915000915527344 -24.915000915527344,-24.915000915527344 -24.915000915527344,-24.915000915527344"></path></g><g opacity="1" transform="matrix(1,0,0,1,330.59100341796875,189.4669952392578)"><path stroke-linecap="round" stroke-linejoin="round" fill-opacity="0" stroke="rgb(7,168,137)" stroke-opacity="1" stroke-width="12.04" d=" M-24.915000915527344,24.915000915527344 C-24.915000915527344,24.915000915527344 24.915000915527344,-24.915000915527344 24.915000915527344,-24.915000915527344"></path></g></g><g opacity="1" transform="matrix(1,0,0,1,0,0)"><g opacity="1" transform="matrix(1,0,0,1,343.3819885253906,272.11700439453125)"><path stroke-linecap="round" stroke-linejoin="round" fill-opacity="0" stroke="rgb(18,19,48)" stroke-opacity="1" stroke-width="12.04" d=" M-29.280000686645508,0 C-29.280000686645508,0 29.280000686645508,0 29.280000686645508,0"></path></g><g opacity="1" transform="matrix(1,0,0,1,288.7820129394531,272.11700439453125)"><path stroke-linecap="round" stroke-linejoin="round" fill-opacity="0" stroke="rgb(18,19,48)" stroke-opacity="1" stroke-width="12.04" d=" M-0.2619999945163727,0 C-0.2619999945163727,0 0.2619999945163727,0 0.2619999945163727,0"></path></g><g opacity="1" transform="matrix(1,0,0,1,343.3819885253906,304.67498779296875)"><path stroke-linecap="round" stroke-linejoin="round" fill-opacity="0" stroke="rgb(18,19,48)" stroke-opacity="1" stroke-width="12.04" d=" M-29.280000686645508,0 C-29.280000686645508,0 29.280000686645508,0 29.280000686645508,0"></path></g><g opacity="1" transform="matrix(1,0,0,1,288.7820129394531,304.67498779296875)"><path stroke-linecap="round" stroke-linejoin="round" fill-opacity="0" stroke="rgb(18,19,48)" stroke-opacity="1" stroke-width="12.04" d=" M-0.2619999945163727,0 C-0.2619999945163727,0 0.2619999945163727,0 0.2619999945163727,0"></path></g><g opacity="1" transform="matrix(1,0,0,1,343.3819885253906,337.2330017089844)"><path stroke-linecap="round" stroke-linejoin="round" fill-opacity="0" stroke="rgb(18,19,48)" stroke-opacity="1" stroke-width="12.04" d=" M-29.280000686645508,0 C-29.280000686645508,0 29.280000686645508,0 29.280000686645508,0"></path></g><g opacity="1" transform="matrix(1,0,0,1,288.7820129394531,337.2330017089844)"><path stroke-linecap="round" stroke-linejoin="round" fill-opacity="0" stroke="rgb(18,19,48)" stroke-opacity="1" stroke-width="12.04" d=" M-0.2619999945163727,0 C-0.2619999945163727,0 0.2619999945163727,0 0.2619999945163727,0"></path></g></g></g></g></g><g clip-path="url(#__lottie_element_1070)" transform="matrix(1,0,0,1,0,0)" opacity="1" style="display: block;"><g transform="matrix(1,0,0,1,0,0)" opacity="1" style="display: block;"><g opacity="1" transform="matrix(1,0,0,1,0,0)"><g opacity="1" transform="matrix(1,0,0,1,330.59100341796875,189.4669952392578)"><path stroke-linecap="round" stroke-linejoin="round" fill-opacity="0" stroke="rgb(7,168,137)" stroke-opacity="1" stroke-width="12.04" d=" M24.915000915527344,24.915000915527344 C24.915000915527344,24.915000915527344 -24.915000915527344,-24.915000915527344 -24.915000915527344,-24.915000915527344 M-24.915000915527344,24.915000915527344 C-24.915000915527344,24.915000915527344 24.915000915527344,-24.915000915527344 24.915000915527344,-24.915000915527344"></path></g></g><g opacity="1" transform="matrix(1,0,0,1,0,0)"><g opacity="1" transform="matrix(1,0,0,1,288.7820129394531,337.2330017089844)"><path stroke-linecap="round" stroke-linejoin="round" fill-opacity="0" stroke="rgb(18,19,48)" stroke-opacity="1" stroke-width="12.04" d=" M25.320999145507812,-65.11599731445312 C25.320999145507812,-65.11599731445312 83.88099670410156,-65.11599731445312 83.88099670410156,-65.11599731445312 M-0.2619999945163727,-65.11599731445312 C-0.2619999945163727,-65.11599731445312 0.2619999945163727,-65.11599731445312 0.2619999945163727,-65.11599731445312 M25.320999145507812,-32.55799865722656 C25.320999145507812,-32.55799865722656 83.88099670410156,-32.55799865722656 83.88099670410156,-32.55799865722656 M-0.2619999945163727,-32.55799865722656 C-0.2619999945163727,-32.55799865722656 0.2619999945163727,-32.55799865722656 0.2619999945163727,-32.55799865722656 M25.320999145507812,0 C25.320999145507812,0 83.88099670410156,0 83.88099670410156,0 M-0.2619999945163727,0 C-0.2619999945163727,0 0.2619999945163727,0 0.2619999945163727,0"></path></g></g></g><g style="display: none;"><g><g><path stroke-linecap="round" stroke-linejoin="round" fill-opacity="0"></path></g></g><g><path stroke-linecap="round" stroke-linejoin="round" fill-opacity="0"></path></g></g><g transform="matrix(1,0,0,1,330.05999755859375,250.86099243164062)" opacity="1" style="display: block;"><g opacity="1" transform="matrix(1,0,0,1,0,0)"><path stroke-linecap="round" stroke-linejoin="round" fill-opacity="0" stroke="rgb(18,19,48)" stroke-opacity="1" stroke-width="12.04" d=" M80.05999755859375,132.5709991455078 C39.441001892089844,132.5709991455078 -38.560001373291016,132.5709991455078 -80.05999755859375,132.5709991455078 C-80.05999755859375,49.63800048828125 -80.05999755859375,-51.861000061035156 -80.05999755859375,-132.5709991455078 C-38.060001373291016,-132.5709991455078 41.441001892089844,-132.5709991455078 80.05999755859375,-132.5709991455078 C80.05999755859375,-44.361000061035156 80.05999755859375,54.63800048828125 80.05999755859375,132.5709991455078z"></path></g></g></g></g></g><g clip-path="url(#__lottie_element_1049)" style="display: none;"><g style="display: none;"><g><g><path stroke-linecap="round" stroke-linejoin="round" fill-opacity="0"></path></g></g><g><g><path stroke-linecap="round" stroke-linejoin="round" fill-opacity="0"></path></g></g></g><g style="display: none;"><g><g><path stroke-linecap="round" stroke-linejoin="round" fill-opacity="0"></path></g></g><g><path stroke-linecap="round" stroke-linejoin="round" fill-opacity="0"></path></g></g><g style="display: none;"><g><path stroke-linecap="round" stroke-linejoin="round" fill-opacity="0"></path></g></g></g><g class="com" style="display: none;"><g><path></path></g><g><path></path></g><g><path></path></g><g><path></path></g><g><path></path></g><g><path></path></g><g><path></path></g><g><path></path></g><g><path></path></g><g><path></path></g><g><path></path></g><g><path></path></g></g></g></svg>