<?xml version="1.0" encoding="UTF-8" standalone="no"?>
<svg
   viewBox="0 0 500 500"
   width="500"
   height="500"
   preserveAspectRatio="xMidYMid meet"
   style="width: 100%; height: 100%; transform: translate3d(0px, 0px, 0px); content-visibility: visible;"
   version="1.1"
   id="svg1032"
   sodipodi:docname="721_invert.svg"
   inkscape:version="1.1.1 (3bf5ae0d25, 2021-09-20)"
   xmlns:inkscape="http://www.inkscape.org/namespaces/inkscape"
   xmlns:sodipodi="http://sodipodi.sourceforge.net/DTD/sodipodi-0.dtd"
   xmlns="http://www.w3.org/2000/svg"
   xmlns:svg="http://www.w3.org/2000/svg">
  <sodipodi:namedview
     id="namedview1034"
     pagecolor="#505050"
     bordercolor="#eeeeee"
     borderopacity="1"
     inkscape:pageshadow="0"
     inkscape:pageopacity="0"
     inkscape:pagecheckerboard="0"
     showgrid="false"
     inkscape:zoom="1.604"
     inkscape:cx="250"
     inkscape:cy="250"
     inkscape:window-width="1920"
     inkscape:window-height="998"
     inkscape:window-x="-9"
     inkscape:window-y="-9"
     inkscape:window-maximized="1"
     inkscape:current-layer="g978" />
  <defs
     id="defs942">
    <clipPath
       id="__lottie_element_1100">
      <rect
         width="500"
         height="500"
         x="0"
         y="0"
         id="rect930" />
    </clipPath>
    <clipPath
       id="__lottie_element_1108">
      <path
         d="M0,0 L500,0 L500,500 L0,500z"
         id="path933" />
    </clipPath>
    <clipPath
       id="__lottie_element_1115">
      <path
         d="M0,0 L500,0 L500,500 L0,500z"
         id="path936" />
    </clipPath>
    <clipPath
       id="__lottie_element_1122">
      <path
         d="M0,0 L500,0 L500,500 L0,500z"
         id="path939" />
    </clipPath>
  </defs>
  <g
     clip-path="url(#__lottie_element_1100)"
     id="g1030">
    <g
       clip-path="url(#__lottie_element_1122)"
       transform="matrix(1,0,0,1,0,0)"
       opacity="0"
       style="display: block;"
       id="g954">
      <g
         transform="matrix(1,0,0,1,250.00001525878906,249.99998474121094)"
         opacity="1"
         style="display: block;"
         id="g952">
        <g
           opacity="1"
           transform="matrix(1,0,0,1,0,0)"
           id="g946">
          <path
             stroke-linecap="round"
             stroke-linejoin="round"
             fill-opacity="0"
             stroke="rgb(7,168,137)"
             stroke-opacity="1"
             stroke-width="12.04"
             d=" M7.441999912261963,-133.01100158691406 C7.441999912261963,-133.01100158691406 -31.215999603271484,-133.01100158691406 -31.215999603271484,-133.01100158691406"
             id="path944" />
        </g>
        <g
           opacity="1"
           transform="matrix(1,0,0,1,0,0)"
           id="g950">
          <path
             stroke-linecap="round"
             stroke-linejoin="round"
             fill-opacity="0"
             stroke="rgb(18,19,48)"
             stroke-opacity="1"
             stroke-width="12.04"
             d=" M64.21199798583984,30.704999923706055 C64.21199798583984,30.704999923706055 64.21199798583984,85.09700012207031 64.21199798583984,85.09700012207031 C64.21199798583984,97.802001953125 53.83000183105469,108.18399810791016 41.125,108.18399810791016 C41.125,108.18399810791016 -64.89900207519531,108.18399810791016 -64.89900207519531,108.18399810791016 C-77.60399627685547,108.18399810791016 -87.98699951171875,97.802001953125 -87.98699951171875,85.09700012207031 C-87.98699951171875,85.09700012207031 -87.98699951171875,-137.03199768066406 -87.98699951171875,-137.03199768066406 C-87.98699951171875,-149.7270050048828 -77.60399627685547,-160.1199951171875 -64.89900207519531,-160.1199951171875 C-64.89900207519531,-160.1199951171875 41.125,-160.1199951171875 41.125,-160.1199951171875 C53.83000183105469,-160.1199951171875 64.21199798583984,-149.7270050048828 64.21199798583984,-137.03199768066406 C64.21199798583984,-137.03199768066406 64.21199798583984,-12.63700008392334 64.21199798583984,-12.63700008392334 M64.21199798583984,30.704999923706055 C64.21199798583984,30.704999923706055 37.87900161743164,21.641000747680664 37.87900161743164,21.641000747680664 C37.87900161743164,21.641000747680664 15.404000282287598,13.904999732971191 15.404000282287598,13.904999732971191 C8.418000221252441,11.543999671936035 3.453000068664551,5.8420000076293945 1.6829999685287476,-0.824999988079071 C0.6510000228881836,-4.7129998207092285 0.7039999961853027,-8.928999900817871 2.078000068664551,-13.003000259399414 C5.058000087738037,-21.840999603271484 13.383999824523926,-27.444000244140625 22.25,-27.444000244140625 C21.464000701904297,-27.426000595092773 26.766000747680664,-27.08799934387207 28.996000289916992,-26.32900047302246 C28.996000289916992,-26.32900047302246 46.869998931884766,-19.378999710083008 46.869998931884766,-19.378999710083008 C46.869998931884766,-19.378999710083008 64.21199798583984,-12.63700008392334 64.21199798583984,-12.63700008392334 C64.21199798583984,-12.63700008392334 96.70500183105469,-1.312999963760376 96.70500183105469,-1.312999963760376 C96.70500183105469,-1.312999963760376 96.74199676513672,-1.3029999732971191 96.7509994506836,-1.284999966621399 C101.74099731445312,1.3380000591278076 105.69000244140625,5.916999816894531 107.32599639892578,11.73900032043457 C107.32599639892578,11.73900032043457 122.87300109863281,67.16400146484375 122.87300109863281,67.16400146484375 C122.87300109863281,67.16400146484375 133.66700744628906,100.70800018310547 133.66700744628906,100.70800018310547 C133.66700744628906,100.70800018310547 74.68699645996094,140.1649932861328 45.19200134277344,159.88900756835938 C45.19200134277344,159.88900756835938 -10.708000183105469,108.18399810791016 -10.708000183105469,108.18399810791016 M133.6580047607422,100.71600341796875 C133.6580047607422,100.71600341796875 151.6540069580078,127.60600280761719 151.6540069580078,127.60600280761719 C151.6540069580078,127.60600280761719 63.207000732421875,186.80599975585938 63.207000732421875,186.80599975585938 C63.207000732421875,186.80599975585938 45.19200134277344,159.88800048828125 45.19200134277344,159.88800048828125"
             id="path948" />
        </g>
      </g>
    </g>
    <g
       clip-path="url(#__lottie_element_1115)"
       transform="matrix(1,0,0,1,0,0)"
       opacity="0"
       style="display: block;"
       id="g966">
      <g
         transform="matrix(1,0,0,1,250.00001525878906,249.99998474121094)"
         opacity="1"
         style="display: block;"
         id="g964">
        <g
           opacity="1"
           transform="matrix(1,0,0,1,0,0)"
           id="g958">
          <path
             stroke-linecap="round"
             stroke-linejoin="round"
             fill-opacity="0"
             stroke="rgb(7,168,137)"
             stroke-opacity="1"
             stroke-width="12.04"
             d=" M7.441999912261963,-133.01100158691406 C7.441999912261963,-133.01100158691406 -31.215999603271484,-133.01100158691406 -31.215999603271484,-133.01100158691406"
             id="path956" />
        </g>
        <g
           opacity="1"
           transform="matrix(1,0,0,1,0,0)"
           id="g962">
          <path
             stroke-linecap="round"
             stroke-linejoin="round"
             fill-opacity="0"
             stroke="rgb(18,19,48)"
             stroke-opacity="1"
             stroke-width="12.04"
             d=" M64.21199798583984,30.704999923706055 C64.21199798583984,30.704999923706055 64.21199798583984,85.09700012207031 64.21199798583984,85.09700012207031 C64.21199798583984,97.802001953125 53.83000183105469,108.18399810791016 41.125,108.18399810791016 C41.125,108.18399810791016 -64.89900207519531,108.18399810791016 -64.89900207519531,108.18399810791016 C-77.60399627685547,108.18399810791016 -87.98699951171875,97.802001953125 -87.98699951171875,85.09700012207031 C-87.98699951171875,85.09700012207031 -87.98699951171875,-137.03199768066406 -87.98699951171875,-137.03199768066406 C-87.98699951171875,-149.7270050048828 -77.60399627685547,-160.1199951171875 -64.89900207519531,-160.1199951171875 C-64.89900207519531,-160.1199951171875 41.125,-160.1199951171875 41.125,-160.1199951171875 C53.83000183105469,-160.1199951171875 64.21199798583984,-149.7270050048828 64.21199798583984,-137.03199768066406 C64.21199798583984,-137.03199768066406 64.21199798583984,-12.63700008392334 64.21199798583984,-12.63700008392334 M64.21199798583984,30.704999923706055 C64.21199798583984,30.704999923706055 37.87900161743164,21.641000747680664 37.87900161743164,21.641000747680664 C37.87900161743164,21.641000747680664 15.404000282287598,13.904999732971191 15.404000282287598,13.904999732971191 C8.418000221252441,11.543999671936035 3.453000068664551,5.8420000076293945 1.6829999685287476,-0.824999988079071 C0.6510000228881836,-4.7129998207092285 0.7039999961853027,-8.928999900817871 2.078000068664551,-13.003000259399414 C5.058000087738037,-21.840999603271484 13.383999824523926,-27.444000244140625 22.25,-27.444000244140625 C21.464000701904297,-27.426000595092773 26.766000747680664,-27.08799934387207 28.996000289916992,-26.32900047302246 C28.996000289916992,-26.32900047302246 46.869998931884766,-19.378999710083008 46.869998931884766,-19.378999710083008 C46.869998931884766,-19.378999710083008 64.21199798583984,-12.63700008392334 64.21199798583984,-12.63700008392334 C64.21199798583984,-12.63700008392334 96.70500183105469,-1.312999963760376 96.70500183105469,-1.312999963760376 C96.70500183105469,-1.312999963760376 96.74199676513672,-1.3029999732971191 96.7509994506836,-1.284999966621399 C101.74099731445312,1.3380000591278076 105.69000244140625,5.916999816894531 107.32599639892578,11.73900032043457 C107.32599639892578,11.73900032043457 122.87300109863281,67.16400146484375 122.87300109863281,67.16400146484375 C122.87300109863281,67.16400146484375 133.66700744628906,100.70800018310547 133.66700744628906,100.70800018310547 C133.66700744628906,100.70800018310547 74.68699645996094,140.1649932861328 45.19200134277344,159.88900756835938 C45.19200134277344,159.88900756835938 -10.708000183105469,108.18399810791016 -10.708000183105469,108.18399810791016 M133.6580047607422,100.71600341796875 C133.6580047607422,100.71600341796875 151.6540069580078,127.60600280761719 151.6540069580078,127.60600280761719 C151.6540069580078,127.60600280761719 63.207000732421875,186.80599975585938 63.207000732421875,186.80599975585938 C63.207000732421875,186.80599975585938 45.19200134277344,159.88800048828125 45.19200134277344,159.88800048828125"
             id="path960" />
        </g>
      </g>
    </g>
    <g
       clip-path="url(#__lottie_element_1108)"
       transform="matrix(1,0,0,1,0,0)"
       opacity="1"
       style="display: block;"
       id="g978">
      <g
         transform="matrix(1,0,0,1,250.00001525878906,249.99998474121094)"
         opacity="1"
         style="display:block;fill:#ffffff;fill-opacity:0"
         id="g976">
        <g
           opacity="1"
           transform="matrix(1,0,0,1,0,0)"
           id="g970"
           style="fill:#ffffff;fill-opacity:0">
          <path
             stroke-linecap="round"
             stroke-linejoin="round"
             fill-opacity="0"
             stroke="rgb(7,168,137)"
             stroke-opacity="1"
             stroke-width="12.04"
             d=" M7.441999912261963,-133.01100158691406 C7.441999912261963,-133.01100158691406 -31.215999603271484,-133.01100158691406 -31.215999603271484,-133.01100158691406"
             id="path968"
             style="fill:#ffffff;fill-opacity:0;stroke:#59f8d9;stroke-opacity:1" />
        </g>
        <g
           opacity="1"
           transform="matrix(1,0,0,1,0,0)"
           id="g974"
           style="fill:#ffffff;fill-opacity:0">
          <path
             stroke-linecap="round"
             stroke-linejoin="round"
             fill-opacity="0"
             stroke="rgb(18,19,48)"
             stroke-opacity="1"
             stroke-width="12.04"
             d=" M64.21199798583984,30.704999923706055 C64.21199798583984,30.704999923706055 64.21199798583984,85.09700012207031 64.21199798583984,85.09700012207031 C64.21199798583984,97.802001953125 53.83000183105469,108.18399810791016 41.125,108.18399810791016 C41.125,108.18399810791016 -64.89900207519531,108.18399810791016 -64.89900207519531,108.18399810791016 C-77.60399627685547,108.18399810791016 -87.98699951171875,97.802001953125 -87.98699951171875,85.09700012207031 C-87.98699951171875,85.09700012207031 -87.98699951171875,-137.03199768066406 -87.98699951171875,-137.03199768066406 C-87.98699951171875,-149.7270050048828 -77.60399627685547,-160.1199951171875 -64.89900207519531,-160.1199951171875 C-64.89900207519531,-160.1199951171875 41.125,-160.1199951171875 41.125,-160.1199951171875 C53.83000183105469,-160.1199951171875 64.21199798583984,-149.7270050048828 64.21199798583984,-137.03199768066406 C64.21199798583984,-137.03199768066406 64.21199798583984,-12.63700008392334 64.21199798583984,-12.63700008392334 M64.21199798583984,30.704999923706055 C64.21199798583984,30.704999923706055 15.404000282287598,13.904999732971191 15.404000282287598,13.904999732971191 C4.34499979019165,10.166999816894531 -1.6510000228881836,-1.944000005722046 2.078000068664551,-13.003000259399414 C5.058000087738037,-21.840999603271484 13.383999824523926,-27.444000244140625 22.25,-27.444000244140625 C21.464000701904297,-27.426000595092773 26.766000747680664,-27.08799934387207 28.996000289916992,-26.32900047302246 C28.996000289916992,-26.32900047302246 64.21199798583984,-12.63700008392334 64.21199798583984,-12.63700008392334 C64.21199798583984,-12.63700008392334 96.70500183105469,-1.312999963760376 96.70500183105469,-1.312999963760376 C96.70500183105469,-1.312999963760376 96.74199676513672,-1.3029999732971191 96.7509994506836,-1.284999966621399 C101.74099731445312,1.3380000591278076 105.69000244140625,5.916999816894531 107.32599639892578,11.73900032043457 C107.32599639892578,11.73900032043457 122.87300109863281,67.16400146484375 122.87300109863281,67.16400146484375 C122.87300109863281,67.16400146484375 133.66700744628906,100.70800018310547 133.66700744628906,100.70800018310547 C133.66700744628906,100.70800018310547 74.68699645996094,140.1649932861328 45.19200134277344,159.88900756835938 C45.19200134277344,159.88900756835938 -10.708000183105469,108.18399810791016 -10.708000183105469,108.18399810791016 M133.6580047607422,100.71600341796875 C133.6580047607422,100.71600341796875 151.6540069580078,127.60600280761719 151.6540069580078,127.60600280761719 C151.6540069580078,127.60600280761719 63.207000732421875,186.80599975585938 63.207000732421875,186.80599975585938 C63.207000732421875,186.80599975585938 45.19200134277344,159.88800048828125 45.19200134277344,159.88800048828125"
             id="path972"
             style="fill:#ffffff;fill-opacity:0;stroke:#ffffff;stroke-opacity:1" />
        </g>
      </g>
    </g>
    <g
       class="com"
       style="display: none;"
       id="g1028">
      <g
         id="g982">
        <path
           id="path980" />
      </g>
      <g
         id="g986">
        <path
           id="path984" />
      </g>
      <g
         id="g990">
        <path
           id="path988" />
      </g>
      <g
         id="g994">
        <path
           id="path992" />
      </g>
      <g
         id="g998">
        <path
           id="path996" />
      </g>
      <g
         id="g1002">
        <path
           id="path1000" />
      </g>
      <g
         id="g1006">
        <path
           id="path1004" />
      </g>
      <g
         id="g1010">
        <path
           id="path1008" />
      </g>
      <g
         id="g1014">
        <path
           id="path1012" />
      </g>
      <g
         id="g1018">
        <path
           id="path1016" />
      </g>
      <g
         id="g1022">
        <path
           id="path1020" />
      </g>
      <g
         id="g1026">
        <path
           id="path1024" />
      </g>
    </g>
  </g>
</svg>
