<svg xmlns="http://www.w3.org/2000/svg" viewBox="0 0 500 500" width="500" height="500" preserveAspectRatio="xMidYMid meet" style="width: 100%; height: 100%; transform: translate3d(0px, 0px, 0px); content-visibility: visible;"><defs><clipPath id="__lottie_element_1129"><rect width="500" height="500" x="0" y="0"></rect></clipPath></defs><g clip-path="url(#__lottie_element_1129)"><g transform="matrix(1,0,0,1,367.4580078125,368.0889892578125)" opacity="1" style="display: block;"><g opacity="1" transform="matrix(1,0,0,1,0,0)"><path stroke-linecap="round" stroke-linejoin="round" fill-opacity="0" stroke="rgb(7,168,137)" stroke-opacity="1" stroke-width="12.04" d=" M0,-40.029998779296875 C0,-40.029998779296875 13.005999565124512,-13.675999641418457 13.005999565124512,-13.675999641418457 C13.005999565124512,-13.675999641418457 42.09000015258789,-9.449999809265137 42.09000015258789,-9.449999809265137 C42.09000015258789,-9.449999809265137 21.045000076293945,11.064000129699707 21.045000076293945,11.064000129699707 C21.045000076293945,11.064000129699707 26.01300048828125,40.029998779296875 26.01300048828125,40.029998779296875 C26.01300048828125,40.029998779296875 0,26.354000091552734 0,26.354000091552734 C0,26.354000091552734 -26.01300048828125,40.029998779296875 -26.01300048828125,40.029998779296875 C-26.01300048828125,40.029998779296875 -21.045000076293945,11.064000129699707 -21.045000076293945,11.064000129699707 C-21.045000076293945,11.064000129699707 -42.09000015258789,-9.449999809265137 -42.09000015258789,-9.449999809265137 C-42.09000015258789,-9.449999809265137 -13.005999565124512,-13.675999641418457 -13.005999565124512,-13.675999641418457 C-13.005999565124512,-13.675999641418457 0,-40.029998779296875 0,-40.029998779296875z"></path></g></g><g transform="matrix(1,0,0,1,248.4580078125,368.0889892578125)" opacity="1" style="display: block;"><g opacity="1" transform="matrix(1,0,0,1,0,0)"><path stroke-linecap="round" stroke-linejoin="round" fill-opacity="0" stroke="rgb(7,168,137)" stroke-opacity="1" stroke-width="12.04" d=" M0,-40.029998779296875 C0,-40.029998779296875 13.005999565124512,-13.675999641418457 13.005999565124512,-13.675999641418457 C13.005999565124512,-13.675999641418457 42.09000015258789,-9.449999809265137 42.09000015258789,-9.449999809265137 C42.09000015258789,-9.449999809265137 21.045000076293945,11.064000129699707 21.045000076293945,11.064000129699707 C21.045000076293945,11.064000129699707 26.01300048828125,40.029998779296875 26.01300048828125,40.029998779296875 C26.01300048828125,40.029998779296875 0,26.354000091552734 0,26.354000091552734 C0,26.354000091552734 -26.01300048828125,40.029998779296875 -26.01300048828125,40.029998779296875 C-26.01300048828125,40.029998779296875 -21.045000076293945,11.064000129699707 -21.045000076293945,11.064000129699707 C-21.045000076293945,11.064000129699707 -42.09000015258789,-9.449999809265137 -42.09000015258789,-9.449999809265137 C-42.09000015258789,-9.449999809265137 -13.005999565124512,-13.675999641418457 -13.005999565124512,-13.675999641418457 C-13.005999565124512,-13.675999641418457 0,-40.029998779296875 0,-40.029998779296875z"></path></g></g><g transform="matrix(1,0,0,1,130.4580078125,368.0889892578125)" opacity="1" style="display: block;"><g opacity="1" transform="matrix(1,0,0,1,0,0)"><path stroke-linecap="round" stroke-linejoin="round" fill-opacity="0" stroke="rgb(7,168,137)" stroke-opacity="1" stroke-width="12.04" d=" M0,-40.029998779296875 C0,-40.029998779296875 13.005999565124512,-13.675999641418457 13.005999565124512,-13.675999641418457 C13.005999565124512,-13.675999641418457 42.09000015258789,-9.449999809265137 42.09000015258789,-9.449999809265137 C42.09000015258789,-9.449999809265137 21.045000076293945,11.064000129699707 21.045000076293945,11.064000129699707 C21.045000076293945,11.064000129699707 26.01300048828125,40.029998779296875 26.01300048828125,40.029998779296875 C26.01300048828125,40.029998779296875 0,26.354000091552734 0,26.354000091552734 C0,26.354000091552734 -26.01300048828125,40.029998779296875 -26.01300048828125,40.029998779296875 C-26.01300048828125,40.029998779296875 -21.045000076293945,11.064000129699707 -21.045000076293945,11.064000129699707 C-21.045000076293945,11.064000129699707 -42.09000015258789,-9.449999809265137 -42.09000015258789,-9.449999809265137 C-42.09000015258789,-9.449999809265137 -13.005999565124512,-13.675999641418457 -13.005999565124512,-13.675999641418457 C-13.005999565124512,-13.675999641418457 0,-40.029998779296875 0,-40.029998779296875z"></path></g></g><g transform="matrix(1,0,0,1,1.5,-36.5)" opacity="1" style="display: block;"><g opacity="1" transform="matrix(1,0,0,1,200.03399658203125,246.322998046875)"><path stroke-linecap="round" stroke-linejoin="round" fill-opacity="0" stroke="rgb(18,19,48)" stroke-opacity="1" stroke-width="12.04" d=" M146.45199584960938,-18.75 C146.45199584960938,-18.75 134.33399963378906,56.78200149536133 134.33399963378906,56.78200149536133 C130.9530029296875,66.45700073242188 121.76899719238281,73.177001953125 111.21900177001953,73.177001953125 C111.21900177001953,73.177001953125 28.58300018310547,73.177001953125 28.58300018310547,73.177001953125 C28.58300018310547,73.177001953125 -10.286999702453613,58.57400131225586 -10.286999702453613,58.57400131225586 C-10.286999702453613,58.57400131225586 -10.286999702453613,-32.9900016784668 -10.286999702453613,-32.9900016784668 C-10.286999702453613,-32.9900016784668 11.45199966430664,-32.9900016784668 11.45199966430664,-32.9900016784668 C30.972000122070312,-41.88600158691406 43.494998931884766,-57.92900085449219 43.494998931884766,-79.37999725341797 C43.494998931884766,-79.37999725341797 43.494998931884766,-120.52300262451172 43.494998931884766,-120.52300262451172 C61.82099914550781,-120.52300262451172 76.69100189208984,-105.65299987792969 76.69100189208984,-87.33799743652344 C76.69100189208984,-87.33799743652344 76.69100189208984,-44.16899871826172 76.69100189208984,-44.16899871826172 C76.69100189208984,-44.16899871826172 119.63500213623047,-44.16899871826172 119.63500213623047,-44.16899871826172 C134.2169952392578,-44.16899871826172 145.7270050048828,-32.65999984741211 146.45199584960938,-18.75z M-10.286999702453613,-32.9900016784668 C-10.286999702453613,-32.9900016784668 -10.286999702453613,58.57400131225586 -10.286999702453613,58.57400131225586 C-10.286999702453613,58.57400131225586 -49.52799987792969,58.64899826049805 -49.52799987792969,58.64899826049805 C-49.52799987792969,58.64899826049805 -49.52799987792969,-32.91600036621094 -49.52799987792969,-32.91600036621094 C-49.52799987792969,-32.91600036621094 -10.286999702453613,-32.9900016784668 -10.286999702453613,-32.9900016784668z"></path></g></g><g class="com" style="display: none;"><g><path></path></g><g><path></path></g><g><path></path></g><g><path></path></g><g><path></path></g><g><path></path></g><g><path></path></g><g><path></path></g><g><path></path></g><g><path></path></g><g><path></path></g><g><path></path></g></g></g></svg>